<svg width="154" height="204" viewBox="0 0 154 204" fill="none" xmlns="http://www.w3.org/2000/svg">
<path d="M0.0543322 204V0.36363H80.3952C95.8403 0.36363 108.998 3.31344 119.87 9.21307C130.741 15.0464 139.027 23.1667 144.728 33.5739C150.495 43.9148 153.378 55.8466 153.378 69.3693C153.378 82.892 150.462 94.8239 144.628 105.165C138.795 115.506 130.343 123.56 119.273 129.327C108.269 135.094 94.9454 137.977 79.3015 137.977H28.0941V103.474H72.3413C80.6273 103.474 87.4549 102.049 92.8242 99.1989C98.2598 96.2822 102.303 92.2718 104.955 87.1676C107.673 81.9972 109.032 76.0644 109.032 69.3693C109.032 62.6079 107.673 56.7083 104.955 51.6704C102.303 46.5663 98.2598 42.6222 92.8242 39.8381C87.3886 36.9877 80.4947 35.5625 72.1424 35.5625H43.1083V204H0.0543322Z" fill="#9E4BDE"/>
</svg>
